{
	"asset":{
		"generator":"Khronos glTF Blender I/O v4.1.63",
		"version":"2.0"
	},
	"extensionsUsed":[
		"KHR_materials_specular",
		"KHR_materials_ior"
	],
	"scene":0,
	"scenes":[
		{
			"name":"Scene",
			"nodes":[
				0
			]
		}
	],
	"nodes":[
		{
			"mesh":0,
			"name":"logoINTv"
		}
	],
	"materials":[
		{
			"doubleSided":true,
			"name":"Material.008",
			"pbrMetallicRoughness":{
				"baseColorFactor":[
					0.8000000715255737,
					0.01909516006708145,
					0.010728520341217518,
					1
				],
				"metallicRoughnessTexture":{
					"index":0
				}
			}
		},
		{
			"doubleSided":true,
			"extensions":{
				"KHR_materials_specular":{
					"specularFactor":0
				},
				"KHR_materials_ior":{
					"ior":1.4500000476837158
				}
			},
			"name":"Material.009",
			"pbrMetallicRoughness":{
				"metallicRoughnessTexture":{
					"index":1
				}
			}
		}
	],
	"meshes":[
		{
			"name":"Sphere.001",
			"primitives":[
				{
					"attributes":{
						"POSITION":0,
						"NORMAL":1,
						"TEXCOORD_0":2
					},
					"indices":3,
					"material":0
				},
				{
					"attributes":{
						"POSITION":4,
						"NORMAL":5,
						"TEXCOORD_0":6
					},
					"indices":7,
					"material":1
				}
			]
		}
	],
	"textures":[
		{
			"sampler":0,
			"source":0
		},
		{
			"sampler":0,
			"source":1
		}
	],
	"images":[
		{
			"mimeType":"image/png",
			"name":"tedxaboc_2K_Roughness",
			"uri":"tedxaboc_2K_Roughness.png"
		},
		{
			"mimeType":"image/png",
			"name":"uh4obimc_2K_Roughness",
			"uri":"uh4obimc_2K_Roughness.png"
		}
	],
	"accessors":[
		{
			"bufferView":0,
			"componentType":5126,
			"count":8079,
			"max":[
				2.059142589569092,
				2.098482131958008,
				2.0598201751708984
			],
			"min":[
				-2.0604965686798096,
				-2.065570831298828,
				-2.059818744659424
			],
			"type":"VEC3"
		},
		{
			"bufferView":1,
			"componentType":5126,
			"count":8079,
			"type":"VEC3"
		},
		{
			"bufferView":2,
			"componentType":5126,
			"count":8079,
			"type":"VEC2"
		},
		{
			"bufferView":3,
			"componentType":5123,
			"count":47616,
			"type":"SCALAR"
		},
		{
			"bufferView":4,
			"componentType":5126,
			"count":160897,
			"max":[
				1.369042992591858,
				2.0765905380249023,
				3.0706045627593994
			],
			"min":[
				-2.522235631942749,
				-3.112312078475952,
				-3.379552125930786
			],
			"type":"VEC3"
		},
		{
			"bufferView":5,
			"componentType":5126,
			"count":160897,
			"type":"VEC3"
		},
		{
			"bufferView":6,
			"componentType":5126,
			"count":160897,
			"type":"VEC2"
		},
		{
			"bufferView":7,
			"componentType":5125,
			"count":949200,
			"type":"SCALAR"
		}
	],
	"bufferViews":[
		{
			"buffer":0,
			"byteLength":96948,
			"byteOffset":0,
			"target":34962
		},
		{
			"buffer":0,
			"byteLength":96948,
			"byteOffset":96948,
			"target":34962
		},
		{
			"buffer":0,
			"byteLength":64632,
			"byteOffset":193896,
			"target":34962
		},
		{
			"buffer":0,
			"byteLength":95232,
			"byteOffset":258528,
			"target":34963
		},
		{
			"buffer":0,
			"byteLength":1930764,
			"byteOffset":353760,
			"target":34962
		},
		{
			"buffer":0,
			"byteLength":1930764,
			"byteOffset":2284524,
			"target":34962
		},
		{
			"buffer":0,
			"byteLength":1287176,
			"byteOffset":4215288,
			"target":34962
		},
		{
			"buffer":0,
			"byteLength":3796800,
			"byteOffset":5502464,
			"target":34963
		}
	],
	"samplers":[
		{
			"magFilter":9729,
			"minFilter":9987
		}
	],
	"buffers":[
		{
			"byteLength":9299264,
			"uri":"logo.bin"
		}
	]
}
