<?xml version="1.0" encoding="UTF-8"?>
<svg version="1.1" viewBox="0 0 24 24" xmlns="http://www.w3.org/2000/svg">
 <rect x=".5" y=".5" width="23" height="23" ry="2.1924" fill="#121212"/>
 <g fill="#fff">
  <path d="m6.2121 21.582a1.7832 1.7247 0 0 1-0.92218-2.169 1.7832 1.7247 0 0 1 2.1666-1.0531 1.7832 1.7247 0 0 1 1.2492 2.0101 1.7832 1.7247 0 0 1-1.978 1.3565"/>
  <path d="m3.5932 18.133a1.7832 1.7247 0 0 1-0.92218-2.1691 1.7832 1.7247 0 0 1 2.1666-1.0531 1.7832 1.7247 0 0 1 1.2492 2.0101 1.7832 1.7247 0 0 1-1.978 1.3565"/>
  <path d="m2.6458 14.267a1.7832 1.7247 0 0 1-0.92218-2.1691 1.7832 1.7247 0 0 1 2.1666-1.0531 1.7832 1.7247 0 0 1 1.2492 2.0101 1.7832 1.7247 0 0 1-1.978 1.3565"/>
  <path d="m3.5932 10.402a1.7832 1.7247 0 0 1-0.92218-2.1691 1.7832 1.7247 0 0 1 2.1666-1.0531 1.7832 1.7247 0 0 1 1.2492 2.0101 1.7832 1.7247 0 0 1-1.978 1.3565"/>
  <path d="m6.2121 7.1978a1.7832 1.7247 0 0 1-0.92218-2.1691 1.7832 1.7247 0 0 1 2.1666-1.0531 1.7832 1.7247 0 0 1 1.2492 2.0101 1.7832 1.7247 0 0 1-1.978 1.3565"/>
  <path transform="scale(-1,1)" d="m-17.788 21.582a1.7832 1.7247 0 0 1-0.92218-2.169 1.7832 1.7247 0 0 1 2.1666-1.0531 1.7832 1.7247 0 0 1 1.2492 2.0101 1.7832 1.7247 0 0 1-1.978 1.3565"/>
  <path transform="scale(-1,1)" d="m-20.159 18.133a1.7832 1.7247 0 0 1-0.92218-2.1691 1.7832 1.7247 0 0 1 2.1666-1.0531 1.7832 1.7247 0 0 1 1.2492 2.0101 1.7832 1.7247 0 0 1-1.978 1.3565"/>
  <path transform="scale(-1,1)" d="m-21.354 14.267a1.7832 1.7247 0 0 1-0.92218-2.1691 1.7832 1.7247 0 0 1 2.1666-1.0531 1.7832 1.7247 0 0 1 1.2492 2.0101 1.7832 1.7247 0 0 1-1.978 1.3565"/>
  <path transform="scale(-1,1)" d="m-20.159 10.402a1.7832 1.7247 0 0 1-0.92218-2.1691 1.7832 1.7247 0 0 1 2.1666-1.0531 1.7832 1.7247 0 0 1 1.2492 2.0101 1.7832 1.7247 0 0 1-1.978 1.3565"/>
  <path transform="scale(-1,1)" d="m-17.788 7.1978a1.7832 1.7247 0 0 1-0.92218-2.1691 1.7832 1.7247 0 0 1 2.1666-1.0531 1.7832 1.7247 0 0 1 1.2492 2.0101 1.7832 1.7247 0 0 1-1.978 1.3565"/>
  <path d="m11.252 5.473a1.7832 1.7247 0 0 1-0.92218-2.1691 1.7832 1.7247 0 0 1 2.1666-1.0531 1.7832 1.7247 0 0 1 1.2492 2.0101 1.7832 1.7247 0 0 1-1.978 1.3565"/>
  <path d="m9.278 18.589a6.4866 6.4866 0 0 1-3.3545-8.1577 6.4866 6.4866 0 0 1 7.8812-3.9607 6.4866 6.4866 0 0 1 4.5442 7.5598 6.4866 6.4866 0 0 1-7.1953 5.1018"/>
 </g>
</svg>
